<svg data-v-423bf9ae="" xmlns="http://www.w3.org/2000/svg" viewBox="0 0 645 90" class="iconLeft"><!----><!----><!----><g data-v-423bf9ae="" id="a91b10bb-6af3-4e85-b771-b66a7d5ea32e" fill="black" transform="matrix(5.681818469168412,0,0,5.681818469168412,108.57477524351117,-3.295455871698998)"><path d="M5.53 3.72C2.91 3.72 0.76 5.46 0.76 8.82C0.76 12.10 2.84 13.78 5.43 13.78C7.85 13.78 9.63 12.59 9.87 10.26L9.88 10.12L7.36 10.12L7.34 10.26C7.13 11.33 6.50 11.93 5.52 11.93C4.40 11.93 3.39 11.10 3.39 8.67C3.39 6.58 4.30 5.57 5.50 5.57C6.52 5.57 7.15 6.06 7.36 7.10L7.39 7.24L9.91 7.24L9.90 7.10C9.70 5.19 8.29 3.72 5.53 3.72ZM14.63 5.91C12.18 5.91 10.61 7.43 10.61 9.84C10.61 12.24 12.18 13.78 14.63 13.78C17.08 13.78 18.65 12.24 18.65 9.84C18.65 7.43 17.08 5.91 14.63 5.91ZM14.63 12.07C13.73 12.07 13.19 11.33 13.19 9.84C13.19 8.34 13.73 7.62 14.63 7.62C15.53 7.62 16.07 8.34 16.07 9.84C16.07 11.33 15.53 12.07 14.63 12.07ZM23.34 5.91C20.89 5.91 19.32 7.43 19.32 9.84C19.32 12.24 20.89 13.78 23.34 13.78C25.79 13.78 27.36 12.24 27.36 9.84C27.36 7.43 25.79 5.91 23.34 5.91ZM23.34 12.07C22.44 12.07 21.90 11.33 21.90 9.84C21.90 8.34 22.44 7.62 23.34 7.62C24.23 7.62 24.78 8.34 24.78 9.84C24.78 11.33 24.23 12.07 23.34 12.07ZM30.91 3.29L28.39 3.29L28.39 10.93C28.39 11.49 28.39 11.87 28.42 12.26C28.48 13.26 29.13 13.72 30.30 13.72C30.86 13.72 31.30 13.69 31.77 13.65L31.77 11.94C31.11 11.97 30.98 11.87 30.94 11.58C30.91 11.40 30.91 11.24 30.91 10.89ZM38.70 5.91C36.50 5.91 34.76 7.35 34.76 9.93C34.76 12.39 36.39 13.78 38.53 13.78C40.56 13.78 42.06 12.77 42.34 10.84L39.86 10.84C39.72 11.65 39.24 12.07 38.67 12.07C37.81 12.07 37.34 11.37 37.34 9.77C37.34 8.33 37.80 7.62 38.64 7.62C39.27 7.62 39.76 7.98 39.87 8.96L42.31 8.96C42.24 7.28 40.89 5.91 38.70 5.91ZM50.92 7.94C50.72 6.64 49.81 5.91 48.27 5.91C47.59 5.91 47.05 6.06 46.59 6.34L45.92 7.27L45.92 3.22L43.40 3.22L43.40 13.58L45.92 13.58L45.92 10.05C45.92 8.36 46.47 7.62 47.24 7.62C47.99 7.62 48.38 8.04 48.44 8.75C48.47 9.13 48.47 9.53 48.47 9.77L48.47 13.58L50.99 13.58L50.99 9.35C50.99 8.75 50.97 8.32 50.92 7.94ZM59.74 9.74C59.74 7.81 58.48 5.91 55.99 5.91C53.49 5.91 52.00 7.69 52.00 9.87C52.00 12.50 53.70 13.78 55.85 13.78C57.76 13.78 59.16 12.82 59.60 11.13L57.12 11.13C57.02 11.70 56.59 12.07 55.87 12.07C55.16 12.07 54.61 11.72 54.49 10.47L59.70 10.47C59.72 10.22 59.74 9.97 59.74 9.74ZM55.86 7.62C56.53 7.62 56.97 8.05 57.11 8.93L54.57 8.93C54.74 8.01 55.20 7.62 55.86 7.62ZM64.34 5.91C62.15 5.91 60.41 7.35 60.41 9.93C60.41 12.39 62.03 13.78 64.18 13.78C66.21 13.78 67.70 12.77 67.98 10.84L65.51 10.84C65.37 11.65 64.89 12.07 64.32 12.07C63.46 12.07 62.99 11.37 62.99 9.77C62.99 8.33 63.45 7.62 64.29 7.62C64.92 7.62 65.41 7.98 65.52 8.96L67.96 8.96C67.89 7.28 66.54 5.91 64.34 5.91ZM72.10 10.81L74.10 13.58L77.20 13.58L73.99 9.53L77.15 6.10L74.20 6.10L71.57 9.24L71.57 3.29L69.05 3.29L69.05 13.58L71.57 13.58L71.57 11.40ZM84.83 9.74C84.83 7.81 83.57 5.91 81.07 5.91C78.58 5.91 77.08 7.69 77.08 9.87C77.08 12.50 78.79 13.78 80.93 13.78C82.85 13.78 84.25 12.82 84.69 11.13L82.21 11.13C82.11 11.70 81.68 12.07 80.96 12.07C80.25 12.07 79.70 11.72 79.58 10.47L84.78 10.47C84.81 10.22 84.83 9.97 84.83 9.74ZM80.95 7.62C81.62 7.62 82.05 8.05 82.19 8.93L79.66 8.93C79.83 8.01 80.29 7.62 80.95 7.62ZM90.44 5.91C89.96 5.91 89.38 6.12 88.97 6.57L88.44 7.62L88.44 6.10L85.92 6.10L85.92 13.58L88.44 13.58L88.44 10.84C88.44 8.58 89.12 7.88 91.01 8.01L91.01 5.95C90.83 5.92 90.68 5.91 90.44 5.91ZM93.97 10.64L94.14 3.92L91.87 3.92L92.04 10.64ZM93.00 11.27C92.26 11.27 91.74 11.79 91.74 12.53C91.74 13.27 92.26 13.78 93.00 13.78C93.74 13.78 94.26 13.27 94.26 12.53C94.26 11.79 93.74 11.27 93.00 11.27Z"></path></g><!----><g data-v-423bf9ae="" id="8c24c09a-0bd3-4c54-8a5e-1a2c0648d0e1" transform="matrix(1.0321574485294105,0,0,1.0321574485294105,-4.607262134400052,-6.205872121895361)" stroke="none" fill="black"><path d="M94.08 67.295L78.79 46.927a4.537 4.537 0 0 0-3.221-1.808c3.619-4.245 5.586-9.545 5.586-15.182 0-12.975-10.558-23.535-23.536-23.535-12.978 0-23.537 10.56-23.537 23.535 0 12.979 10.56 23.539 23.537 23.539 4.587 0 9.078-1.356 12.895-3.86a4.594 4.594 0 0 0 .905 2.847l15.29 20.365a4.584 4.584 0 0 0 3.689 1.841c1.003 0 1.96-.32 2.762-.924a4.615 4.615 0 0 0 .92-6.45zm-36.461-55.12c9.793 0 17.762 7.968 17.762 17.762 0 9.797-7.969 17.766-17.762 17.766-9.794 0-17.763-7.968-17.763-17.766 0-9.793 7.969-17.762 17.763-17.762z"></path><path d="M80.395 17.423v-4.608A5.38 5.38 0 0 0 75.01 7.43h-4.434a26.143 26.143 0 0 1 9.819 9.993zM75.01 61.35v5.32H58.856a5.382 5.382 0 0 0-5.385 5.384v16.159H10.387V12.815h27.716a26.157 26.157 0 0 1 6.56-5.385H10.387A5.387 5.387 0 0 0 5 12.815v75.398a5.389 5.389 0 0 0 5.387 5.385h48.469l21.538-21.544v-3.531L75.01 61.35zM58.856 85.982V72.054h13.923L58.856 85.982z"></path></g><!----></svg>